<?xml version="1.0" standalone="no"?><!DOCTYPE svg PUBLIC "-//W3C//DTD SVG 1.1//EN" "http://www.w3.org/Graphics/SVG/1.1/DTD/svg11.dtd"><svg t="1645507983964" class="icon" viewBox="0 0 1370 1024" version="1.1" xmlns="http://www.w3.org/2000/svg" p-id="13180" xmlns:xlink="http://www.w3.org/1999/xlink" width="267.578125" height="200"><defs><style type="text/css"></style></defs><path d="M386.83795 952.474434h-76.386229a232.435018 232.435018 0 0 1 0-464.870036h40.638828c1.630475 0 14.628132 1.630475 27.687316-12.997656s8.121613-27.687316 8.121612-43.884396c0-193.426666 157.663883-351.090549 349.460074-351.090549C827.327765 79.647179 910.220513 113.825632 971.97861 170.738449c6.506519 6.506519 4.876044 6.506519 12.997656 12.997656C993.113261 195.041759 1004.434297 201.502133 1019.123956 201.502133a39.546716 39.546716 0 0 0 39.008352-39.008352c0-12.997657-6.506519-24.38022-16.258607-34.132308-6.506519-6.506519-4.876044-4.876044-12.997657-11.382563C952.474434 43.884396 850.07751 0 736.298023 0c-229.189449 0-416.094214 180.413627-427.476777 406.342126a308.821246 308.821246 0 1 0 0 617.642492h74.771135a39.546716 39.546716 0 0 0 39.008352-39.008352c1.630475-16.258607-14.628132-32.501833-35.762783-32.501832zM1112.660939 955.843057a68.156943 68.156943 0 1 0 68.156942-68.156943 68.156943 68.156943 0 0 0-68.156942 68.156943z" fill="#0066EB" p-id="13181"></path><path d="M666.418314 433.275732a66.249594 66.249594 0 0 0 58.543291-33.840053H890.762483l162.57069 162.493781 0.276873 0.292255h99.566665a66.326504 66.326504 0 0 0 56.266779 30.133029c38.623806 0 68.156943-29.533137 68.156943-68.156943s-29.533137-68.156943-68.156943-68.156943a66.249594 66.249594 0 0 0-58.451001 33.716998h-64.772937l-133.083699-131.207114L921.372349 326.879529H722.546656a66.326504 66.326504 0 0 0-56.128342-29.933065c-38.623806 0-68.156943 29.533137-68.156943 68.156943s29.533137 68.172325 68.156943 68.172325zM1302.595926 683.399868c-29.0563 0-52.975065 16.720062-63.065553 41.530974H989.129364l-196.072343 195.96467h-115.05618a64.342246 64.342246 0 0 0-34.286126-28.47179c-34.086162-13.628312-74.971099 4.614553-88.614793 38.623805s4.614553 74.971099 38.623806 88.614793c30.609866 10.93649 63.327044 0.815238 81.939073-26.287568H822.928559v-0.092291l0.123054 0.123055 196.056961-196.072343h227.051373v-0.323019h6.444992a65.095956 65.095956 0 0 0 49.990987 22.718981c38.623806 0 68.156943-29.533137 68.156943-68.156942a68.356907 68.356907 0 0 0-68.156943-68.172325zM620.980352 701.412005a66.264976 66.264976 0 0 0 57.958782-32.90176h111.287628A66.264976 66.264976 0 0 0 848.185543 701.412005c38.623806 0 68.156943-29.533137 68.156943-68.156943s-29.533137-68.156943-68.156943-68.156943a66.311122 66.311122 0 0 0-56.789761 30.948267h-113.625668a66.311122 66.311122 0 0 0-56.789762-30.948267c-38.623806 0-68.156943 29.533137-68.156943 68.156943S582.356546 701.412005 620.980352 701.412005z" fill="#00D929" p-id="13182"></path></svg>