<?xml version="1.0" standalone="no"?><!DOCTYPE svg PUBLIC "-//W3C//DTD SVG 1.1//EN" "http://www.w3.org/Graphics/SVG/1.1/DTD/svg11.dtd"><svg t="1645508257937" class="icon" viewBox="0 0 1024 1024" version="1.1" xmlns="http://www.w3.org/2000/svg" p-id="25042" xmlns:xlink="http://www.w3.org/1999/xlink" width="200" height="200"><defs><style type="text/css"></style></defs><path d="M17.655172 70.62069m70.62069 0l282.482759 0q70.62069 0 70.620689 70.620689l0 282.482759q0 70.62069-70.620689 70.62069l-282.482759 0q-70.62069 0-70.62069-70.62069l0-282.482759q0-70.62069 70.62069-70.620689Z" fill="#4A90E2" p-id="25043"></path><path d="M17.655172 600.09931m70.62069 0l282.482759 0q70.62069 0 70.620689 70.62069l0 282.482759q0 70.62069-70.620689 70.620689l-282.482759 0q-70.62069 0-70.62069-70.620689l0-282.482759q0-70.62069 70.62069-70.62069Z" fill="#4A90E2" p-id="25044"></path><path d="M547.310345 600.09931m70.620689 0l282.482759 0q70.62069 0 70.62069 70.62069l0 282.482759q0 70.62069-70.62069 70.620689l-282.482759 0q-70.62069 0-70.620689-70.620689l0-282.482759q0-70.62069 70.620689-70.62069Z" fill="#4A90E2" p-id="25045"></path><path d="M751.333517-0.006165m49.936369 49.936369l174.77729 174.77729q49.936369 49.936369 0 99.872737l-174.77729 174.77729q-49.936369 49.936369-99.872737 0l-174.77729-174.77729q-49.936369-49.936369 0-99.872737l174.77729-174.77729q49.936369-49.936369 99.872737 0Z" fill="#B0D5FF" p-id="25046"></path></svg>