<?xml version="1.0" standalone="no"?><!DOCTYPE svg PUBLIC "-//W3C//DTD SVG 1.1//EN" "http://www.w3.org/Graphics/SVG/1.1/DTD/svg11.dtd"><svg t="1645508214961" class="icon" viewBox="0 0 1024 1024" version="1.1" xmlns="http://www.w3.org/2000/svg" p-id="22324" xmlns:xlink="http://www.w3.org/1999/xlink" width="200" height="200"><defs><style type="text/css"></style></defs><path d="M865.2288 624.4864c0 146.0736-359.68 299.8272-359.68 299.8272l6.9632-824.6272s167.5264 121.856 352.6656 115.4048c0.0512 106.3424 0.0512 263.3216 0.0512 409.3952z" fill="#DCEDFF" p-id="22325"></path><path d="M505.5488 949.9136c-3.7376 0-7.4752-0.8192-10.9568-2.4576-36.864-17.408-360.3968-174.592-360.3968-322.9696V215.0912c0-6.912 2.7648-13.4656 7.68-18.2784s11.5712-7.424 18.4832-7.3216c2.56 0.0512 5.1712 0.1024 7.7824 0.1024 162.9696 0 328.3456-110.0288 330.0352-111.1552a25.6512 25.6512 0 0 1 29.3376 0.512c1.5872 1.1776 162.7648 116.5312 336.7424 110.5408a25.9072 25.9072 0 0 1 18.688 7.168c5.0176 4.8128 7.8336 11.4688 7.8336 18.432v409.3952c0 158.4128-336.7936 306.944-375.1936 323.3792-3.1744 1.3824-6.6048 2.048-10.0352 2.048zM185.4464 240.4352v384.0512c0 85.1456 192.3584 209.3056 320.6144 271.6672 102.1952-45.3632 333.568-169.5232 333.568-271.6672V240.7936c-151.1936-3.7888-284.2112-82.1248-327.5776-110.4896-44.544 27.392-181.8112 104.3456-326.6048 110.1312z" fill="#5B90EF" p-id="22326"></path><path d="M484.0448 666.112c-6.7072 0-13.1584-2.6112-17.9712-7.3728L311.04 506.2656l35.8912-36.5056 135.68 133.4272 206.3872-235.8272 38.5536 33.6896-224.256 256.256a25.51296 25.51296 0 0 1-18.3296 8.704c-0.3072 0.1024-0.6144 0.1024-0.9216 0.1024z" fill="#5B90EF" p-id="22327"></path></svg>