<?xml version="1.0" standalone="no"?><!DOCTYPE svg PUBLIC "-//W3C//DTD SVG 1.1//EN" "http://www.w3.org/Graphics/SVG/1.1/DTD/svg11.dtd"><svg t="1676546093773" class="icon" viewBox="0 0 1024 1024" version="1.1" xmlns="http://www.w3.org/2000/svg" p-id="22709" xmlns:xlink="http://www.w3.org/1999/xlink" width="200" height="200"><path d="M407 667h210v230H407z" fill="#B6BDC6" p-id="22710"></path><path d="M592 692v180H432V692h160m50-50H382v230H212c-13.8 0-25 11.2-25 25s11.2 25 25 25h600c13.8 0 25-11.2 25-25s-11.2-25-25-25H642V642z" fill="#3A3644" p-id="22711"></path><path d="M431.8 781.4h160v36h-160z" fill="#8F969E" p-id="22712"></path><path d="M144 757c-30.3 0-55-24.7-55-55V182c0-30.3 24.7-55 55-55h736c30.3 0 55 24.7 55 55v520c0 30.3-24.7 55-55 55H144z" fill="#8BECEF" p-id="22713"></path><path d="M880 152c7.9 0 15.4 3.1 21.1 8.9 5.7 5.7 8.9 13.2 8.9 21.1v520c0 7.9-3.1 15.4-8.9 21.1-5.7 5.7-13.2 8.9-21.1 8.9H144c-7.9 0-15.4-3.1-21.1-8.9-5.7-5.7-8.9-13.2-8.9-21.1V182c0-7.9 3.1-15.4 8.9-21.1 5.7-5.7 13.2-8.9 21.1-8.9h736m0-50H144c-44 0-80 36-80 80v520c0 44 36 80 80 80h736c44 0 80-36 80-80V182c0-44-36-80-80-80z" fill="#3A3644" p-id="22714"></path><path d="M144 757c-30.3 0-55-24.7-55-55V599h846v103c0 30.3-24.7 55-55 55H144z" fill="#E5E5E5" p-id="22715"></path><path d="M910 624v78c0 7.9-3.1 15.4-8.9 21.1-5.7 5.7-13.2 8.9-21.1 8.9H144c-7.9 0-15.4-3.1-21.1-8.9-5.7-5.7-8.9-13.2-8.9-21.1v-78h796m50-50H64v128c0 44 36 80 80 80h736c44 0 80-36 80-80V574z" fill="#3A3644" p-id="22716"></path><path d="M512 680m-25 0a25 25 0 1 0 50 0 25 25 0 1 0-50 0Z" fill="#3A3644" p-id="22717"></path><path d="M232.7 152h57.7l179.3 310.5c5.5 9.5 2.2 21.8-7.3 27.3l-8.7 5c-9.5 5.5-21.8 2.2-27.3-7.3L232.7 152z m55.1 295.4c5.5 9.5 17.8 12.8 27.3 7.3l8.7-5c9.5-5.5 12.8-17.8 7.3-27.3L175 152h-31c-9.7 0-17.1 4.6-21.5 9.1l165.3 286.3z" fill="#CBEFEE" p-id="22718"></path></svg>