<?xml version="1.0" standalone="no"?><!DOCTYPE svg PUBLIC "-//W3C//DTD SVG 1.1//EN" "http://www.w3.org/Graphics/SVG/1.1/DTD/svg11.dtd"><svg t="1676546037520" class="icon" viewBox="0 0 1024 1024" version="1.1" xmlns="http://www.w3.org/2000/svg" p-id="17227" xmlns:xlink="http://www.w3.org/1999/xlink" width="200" height="200"><path d="M284.9 237.3h-34.2c-6.2 0-11.3-5.1-11.3-11.3v-45.6c0-6.2 5.1-11.3 11.3-11.3h34.2c6.2 0 11.3 5.1 11.3 11.3V226c0 6.3-5.1 11.3-11.3 11.3z" fill="#FFF188" p-id="17228"></path><path d="M284.9 178.9c0.8 0 1.5 0.7 1.5 1.5V226c0 0.8-0.7 1.5-1.5 1.5h-34.2c-0.8 0-1.5-0.7-1.5-1.5v-45.6c0-0.8 0.7-1.5 1.5-1.5h34.2m0-9.7h-34.2c-6.2 0-11.3 5.1-11.3 11.3V226c0 6.2 5.1 11.3 11.3 11.3h34.2c6.2 0 11.3-5.1 11.3-11.3v-45.6c0-6.1-5.1-11.2-11.3-11.2z" fill="" p-id="17229"></path><path d="M284.9 361.6h-34.2c-6.2 0-11.3-5.1-11.3-11.3v-71.5c0-6.2 5.1-11.3 11.3-11.3h34.2c6.2 0 11.3 5.1 11.3 11.3v71.5c0 6.2-5.1 11.3-11.3 11.3z" fill="#FFF188" p-id="17230"></path><path d="M284.9 277.2c0.8 0 1.5 0.7 1.5 1.5v71.5c0 0.8-0.7 1.5-1.5 1.5h-34.2c-0.8 0-1.5-0.7-1.5-1.5v-71.5c0-0.8 0.7-1.5 1.5-1.5h34.2m0-9.7h-34.2c-6.2 0-11.3 5.1-11.3 11.3v71.5c0 6.2 5.1 11.3 11.3 11.3h34.2c6.2 0 11.3-5.1 11.3-11.3v-71.5c0-6.3-5.1-11.3-11.3-11.3z" fill="" p-id="17231"></path><path d="M284.9 474.4h-34.2c-6.2 0-11.3-5.1-11.3-11.3v-71.5c0-6.2 5.1-11.3 11.3-11.3h34.2c6.2 0 11.3 5.1 11.3 11.3v71.5c0 6.2-5.1 11.3-11.3 11.3z" fill="#FFF188" p-id="17232"></path><path d="M284.9 390.1c0.8 0 1.5 0.7 1.5 1.5v71.5c0 0.8-0.7 1.5-1.5 1.5h-34.2c-0.8 0-1.5-0.7-1.5-1.5v-71.5c0-0.8 0.7-1.5 1.5-1.5h34.2m0-9.8h-34.2c-6.2 0-11.3 5.1-11.3 11.3v71.5c0 6.2 5.1 11.3 11.3 11.3h34.2c6.2 0 11.3-5.1 11.3-11.3v-71.5c0-6.2-5.1-11.3-11.3-11.3z" fill="" p-id="17233"></path><path d="M765.7 437.3h-34.2c-6.2 0-11.3-5.1-11.3-11.3v-96.3c0-6.2 5.1-11.3 11.3-11.3h34.2c6.2 0 11.3 5.1 11.3 11.3V426c0 6.3-5.1 11.3-11.3 11.3z" fill="#FFF188" p-id="17234"></path><path d="M765.7 328.2c0.8 0 1.5 0.7 1.5 1.5V426c0 0.8-0.7 1.5-1.5 1.5h-34.2c-0.8 0-1.5-0.7-1.5-1.5v-96.3c0-0.8 0.7-1.5 1.5-1.5h34.2m0-9.7h-34.2c-6.2 0-11.3 5.1-11.3 11.3v96.3c0 6.2 5.1 11.3 11.3 11.3h34.2c6.2 0 11.3-5.1 11.3-11.3v-96.3c0-6.2-5.1-11.3-11.3-11.3z" fill="" p-id="17235"></path><path d="M700.6 960.2H316.4c-32.2 0-58.6-26.4-58.6-58.6V123.5c0-32.2 26.4-58.6 58.6-58.6h384.2c32.2 0 58.6 26.4 58.6 58.6v778.1c0 32.3-26.4 58.6-58.6 58.6z" fill="#83CDFF" p-id="17236"></path><path d="M700.6 83.4c21.5 0 39.1 17.5 39.1 39.1v778.1c0 21.5-17.5 39.1-39.1 39.1H316.4c-21.5 0-39.1-17.5-39.1-39.1V122.5c0-21.5 17.5-39.1 39.1-39.1h384.2m0-19.5H316.4c-32.2 0-58.6 26.4-58.6 58.6v778.1c0 32.2 26.4 58.6 58.6 58.6h384.2c32.2 0 58.6-26.4 58.6-58.6V122.5c0-32.3-26.4-58.6-58.6-58.6z" fill="" p-id="17237"></path><path d="M508.2 64.9l-153.4-1 0.5 19.5h22.6s1.3-0.1 1.3 0.9 0 27.3 27.1 27.3h204c27.1 0 27.1-26.2 27.1-27.3 0-1 1.3-0.9 1.3-0.9h22.6l0.5-19.5-153.6 1zM601.8 911H415.3c-0.7 0-1.2-0.5-1.2-1.2v-9.5c0-0.7 0.5-1.2 1.2-1.2h186.5c0.7 0 1.2 0.5 1.2 1.2v9.5c0 0.6-0.6 1.2-1.2 1.2z" fill="" p-id="17238"></path></svg>